
            <svg xmlns="http://www.w3.org/2000/svg">
                <filter id="grayscale">
                    <feColorMatrix type="saturate" values="0"/>
                </filter>
                <g filter="url(#grayscale)">
                    <svg xmlns="http://www.w3.org/2000/svg" viewBox="60.735001525878914 143.909 453.5299987792969 278.77650395965577"> <svg xmlns="http://www.w3.org/2000/svg" xmlns:xlink="http://www.w3.org/1999/xlink" version="1.1" id="Layer_1" x="224.484" y="213.909" viewBox="95.9000015258789 107.80000305175781 650.0999755859375 379.5999755859375" xml:space="preserve" height="73.59106970615075" width="126.03160370289424" preserveAspectRatio="xMinYMin" enable-background="new 0 0 841.9 595.3" style="overflow: visible;"><polygon points="541.3,273.7 447.5,123.6 746,123.6 518.6,487.4 323.3,174.9 160.1,436.1 274.7,436.1 347.6,326.8 368.3,359.9    293.8,471.7 95.9,471.7 323.3,107.8 518.6,420.4 681.9,159.1 511.6,159.1 562.3,240.2  " style="fill: #000000;"></polygon></svg> <svg xmlns="http://www.w3.org/2000/svg" y="338.30550384521484" viewBox="1.1100000143051147 -0.07000000774860382 217.72000122070312 14.380000114440918" x="178.6400048828125" height="14.380000114440918" width="217.72000122070312" style="overflow: visible;"><g fill="#B25D1F" fill-opacity="1" style=""><path d="M12.25 0.21L10.84 11.70L10.79 11.70L3.34 4.14L3.94 4.50L3.17 11.25L0.96 11.25L2.37-0.22L2.46-0.22L9.72 7.30L9.27 7.09L10.06 0.21L12.25 0.21ZM15.27 11.25L16.62 0.21L24.15 0.21L23.91 2.24L18.63 2.24L18.33 4.70L22.99 4.70L22.74 6.77L18.07 6.77L17.77 9.16L23.27 9.16L23.01 11.25L15.27 11.25ZM30.31 11.76L27.28 0.29L29.83 0.29L31.33 7.21L31.00 7.07L33.69 1.95L34.33 4.94L30.31 11.76ZM36 11.73L32.82 0.29L34.98 0.29L36.87 6.99L36.49 6.93L39.33 0.29L41.67 0.29L36 11.73ZM50.07 2.36L50.34 0.21L57.78 0.21L57.51 2.36L54.87 2.36L53.77 11.25L51.52 11.25L52.62 2.36L50.07 2.36ZM61.38 0.21L64.72 0.21Q65.76 0.21 66.53 0.47Q67.31 0.74 67.80 1.22Q68.30 1.71 68.50 2.39Q68.70 3.08 68.59 3.93L68.59 3.93Q68.50 4.61 68.22 5.28Q67.94 5.96 67.41 6.51Q66.89 7.07 66.10 7.40Q65.31 7.74 64.20 7.74L64.20 7.74L62.64 7.74L62.20 11.25L60.03 11.25L61.38 0.21ZM62.89 5.64L64.44 5.64Q65.10 5.64 65.50 5.36Q65.91 5.08 66.11 4.70Q66.30 4.32 66.33 4.00L66.33 4.00Q66.36 3.83 66.34 3.55Q66.31 3.27 66.19 2.98Q66.06 2.70 65.75 2.51Q65.43 2.31 64.86 2.31L64.86 2.31L63.30 2.31L62.89 5.64ZM63.70 7.05L66.31 6.99L68.52 11.25L65.98 11.25L63.70 7.05ZM71.83 11.25L73.19 0.21L80.72 0.21L80.47 2.24L75.19 2.24L74.89 4.70L79.56 4.70L79.31 6.77L74.64 6.77L74.34 9.16L79.83 9.16L79.58 11.25L71.83 11.25ZM94.62 0.21L93.21 11.70L93.15 11.70L85.71 4.14L86.31 4.50L85.53 11.25L83.32 11.25L84.73-0.22L84.82-0.22L92.08 7.30L91.63 7.09L92.43 0.21L94.62 0.21ZM101.95 11.25L97.63 11.25L98.98 0.21L102.88 0.21Q104.37 0.21 105.35 0.71Q106.33 1.20 106.88 2.03Q107.41 2.85 107.60 3.87Q107.79 4.89 107.67 5.92L107.67 5.92Q107.53 7.16 107.02 8.14Q106.50 9.12 105.71 9.82Q104.92 10.52 103.96 10.88Q102.99 11.25 101.95 11.25L101.95 11.25ZM100.91 2.29L100.06 9.15L101.83 9.15Q102.57 9.15 103.19 8.93Q103.81 8.71 104.29 8.29Q104.76 7.88 105.06 7.24Q105.36 6.60 105.45 5.78L105.45 5.78Q105.58 4.70 105.31 4.01Q105.05 3.33 104.56 2.96Q104.08 2.58 103.57 2.44Q103.05 2.29 102.67 2.29L102.67 2.29L100.91 2.29ZM110.44 14.46L110.44 14.46L109.36 13.74Q109.69 13.43 109.84 12.82Q109.98 12.21 109.87 11.69L109.87 11.69L111.70 11.70Q111.79 12.12 111.65 12.65Q111.51 13.19 111.20 13.67Q110.89 14.16 110.44 14.46ZM132.50 0.21L131.08 11.70L131.03 11.70L123.58 4.14L124.18 4.50L123.41 11.25L121.20 11.25L122.61-0.22L122.70-0.22L129.96 7.30L129.51 7.09L130.31 0.21L132.50 0.21ZM140.85 11.36L140.85 11.36Q139.91 11.36 138.97 11.05Q138.03 10.76 137.26 10.12Q136.48 9.48 136.02 8.48Q135.56 7.49 135.56 6.11L135.56 6.11Q135.56 5.12 135.92 4.06Q136.29 3 137.03 2.11Q137.78 1.21 138.91 0.66Q140.04 0.11 141.56 0.11L141.56 0.11Q142.50 0.11 143.44 0.41Q144.38 0.71 145.15 1.34Q145.92 1.98 146.38 2.98Q146.85 3.98 146.85 5.36L146.85 5.36Q146.85 6.34 146.48 7.40Q146.12 8.46 145.37 9.35Q144.63 10.25 143.50 10.80Q142.37 11.36 140.85 11.36ZM140.88 9.26L140.88 9.26Q141.90 9.26 142.61 8.90Q143.32 8.55 143.76 7.98Q144.19 7.41 144.40 6.75Q144.60 6.09 144.60 5.48L144.60 5.48Q144.60 4.82 144.37 4.23Q144.13 3.65 143.72 3.19Q143.29 2.73 142.72 2.47Q142.16 2.21 141.47 2.21L141.47 2.21Q140.44 2.21 139.74 2.56Q139.03 2.91 138.61 3.48Q138.18 4.05 137.99 4.71Q137.81 5.37 137.81 5.99L137.81 5.99Q137.81 6.63 138.03 7.22Q138.25 7.81 138.66 8.27Q139.06 8.73 139.63 8.99Q140.19 9.26 140.88 9.26ZM164.18 0.21L166.43 0.21L165.07 11.25L162.82 11.25L163.38 6.77L158.59 6.77L158.04 11.25L155.79 11.25L157.14 0.21L159.39 0.21L158.85 4.64L163.63 4.64L164.18 0.21ZM175.26 2.10L170.33 11.25L168.18 11.25L174.57-0.22L174.69-0.22L178.26 11.25L175.74 11.25L173.55 3.18L175.26 2.10ZM171.18 9.09L172.08 7.26L175.40 7.26L175.94 9.09L171.18 9.09ZM189.41 1.47L188.37 3.08Q187.78 2.69 187.16 2.42Q186.54 2.16 185.97 2.13L185.97 2.13Q185.61 2.12 185.32 2.17Q185.04 2.22 184.82 2.35Q184.60 2.47 184.48 2.69Q184.35 2.89 184.32 3.18L184.32 3.18Q184.28 3.57 184.54 3.89Q184.80 4.21 185.26 4.49Q185.72 4.75 186.22 4.98L186.22 4.98Q186.84 5.25 187.40 5.66Q187.95 6.06 188.26 6.71Q188.58 7.37 188.44 8.41L188.44 8.41Q188.37 9.04 188.06 9.60Q187.74 10.15 187.21 10.57Q186.68 10.98 185.94 11.19Q185.21 11.40 184.28 11.34L184.28 11.34Q183.65 11.29 183.02 11.13Q182.38 10.96 181.78 10.67Q181.19 10.38 180.65 9.93L180.65 9.93L181.81 8.29Q182.16 8.60 182.59 8.84Q183.03 9.09 183.48 9.24Q183.93 9.39 184.32 9.42L184.32 9.42Q184.71 9.44 185.12 9.35Q185.52 9.27 185.82 9.02Q186.12 8.76 186.18 8.28L186.18 8.28Q186.22 7.95 186.03 7.67Q185.84 7.38 185.50 7.14Q185.18 6.90 184.75 6.71L184.75 6.71Q184.28 6.48 183.77 6.20Q183.25 5.91 182.83 5.52Q182.40 5.13 182.18 4.56Q181.95 3.99 182.06 3.21L182.06 3.21Q182.18 2.25 182.69 1.57Q183.19 0.88 184.02 0.53Q184.84 0.18 185.88 0.20L185.88 0.20Q186.76 0.24 187.40 0.43Q188.04 0.62 188.52 0.88Q189 1.16 189.41 1.47L189.41 1.47ZM199.71 1.47L198.68 3.08Q198.09 2.69 197.47 2.42Q196.84 2.16 196.28 2.13L196.28 2.13Q195.92 2.12 195.63 2.17Q195.34 2.22 195.13 2.35Q194.91 2.47 194.78 2.69Q194.66 2.89 194.63 3.18L194.63 3.18Q194.58 3.57 194.84 3.89Q195.11 4.21 195.56 4.49Q196.02 4.75 196.53 4.98L196.53 4.98Q197.15 5.25 197.70 5.66Q198.25 6.06 198.57 6.71Q198.89 7.37 198.75 8.41L198.75 8.41Q198.68 9.04 198.36 9.60Q198.05 10.15 197.51 10.57Q196.98 10.98 196.25 11.19Q195.51 11.40 194.58 11.34L194.58 11.34Q193.95 11.29 193.32 11.13Q192.69 10.96 192.09 10.67Q191.49 10.38 190.95 9.93L190.95 9.93L192.12 8.29Q192.47 8.60 192.90 8.84Q193.34 9.09 193.78 9.24Q194.24 9.39 194.63 9.42L194.63 9.42Q195.02 9.44 195.42 9.35Q195.83 9.27 196.13 9.02Q196.43 8.76 196.49 8.28L196.49 8.28Q196.53 7.95 196.34 7.67Q196.14 7.38 195.81 7.14Q195.48 6.90 195.06 6.71L195.06 6.71Q194.58 6.48 194.07 6.20Q193.56 5.91 193.13 5.52Q192.71 5.13 192.48 4.56Q192.25 3.99 192.36 3.21L192.36 3.21Q192.48 2.25 192.99 1.57Q193.50 0.88 194.33 0.53Q195.15 0.18 196.19 0.20L196.19 0.20Q197.07 0.24 197.71 0.43Q198.34 0.62 198.83 0.88Q199.31 1.16 199.71 1.47L199.71 1.47ZM201.99 11.25L203.34 0.21L205.52 0.21L204.42 9.15L209.61 9.15L209.36 11.25L201.99 11.25ZM213.06 11.25L214.41 0.21L221.94 0.21L221.70 2.24L216.42 2.24L216.12 4.70L220.78 4.70L220.53 6.77L215.87 6.77L215.56 9.16L221.06 9.16L220.80 11.25L213.06 11.25Z" transform="translate(0, 0)"></path></g></svg> <svg xmlns="http://www.w3.org/2000/svg" y="304.30550384521484" viewBox="2.549999952316284 -0.6800000071525574 313.5299987792969 24.630001068115234" x="130.7350015258789" height="24.630001068115234" width="313.5299987792969" style="overflow: visible;"><g fill="#000000" style=""><path d="M18.45 19.38L18.38 19.38L4.40 5.50L5.18 5.75L5.25 18.75L2.55 18.75L2.55 0.02L2.68 0.02L16.48 13.93L15.85 13.75L15.80 0.60L18.45 0.60L18.45 19.38ZM37.05 18.75L21.75 18.75Q22.00 18.43 22.53 17.64Q23.05 16.85 23.80 15.72Q24.55 14.60 25.41 13.27Q26.28 11.95 27.19 10.56Q28.10 9.17 28.98 7.86Q29.85 6.55 30.59 5.44Q31.33 4.32 31.86 3.54Q32.40 2.75 32.63 2.45L32.63 2.45L32.95 3.17L24.98 3.17Q24.48 3.17 23.99 2.99Q23.50 2.80 23.18 2.44Q22.85 2.07 22.85 1.60L22.85 1.60L22.85-0.30L25.33-0.30L25.33 0.02Q25.33 0.50 25.50 0.55Q25.68 0.60 26.10 0.60L26.10 0.60L36.83 0.60L26.13 16.50L25.98 16.18L37.05 16.18L37.05 18.75ZM47.88 18.75L47.88 0.60L50.55 0.60L50.55 16.18L59.63 16.18L59.63 18.75L47.88 18.75ZM66.83 19L66.83 19Q65.35 19 64.15 18.39Q62.95 17.77 62.25 16.55Q61.55 15.32 61.55 13.52L61.55 13.52Q61.55 11.75 62.29 10.47Q63.02 9.20 64.24 8.51Q65.45 7.82 66.88 7.82L66.88 7.82Q68.38 7.82 69.34 8.46Q70.30 9.10 70.85 9.95L70.85 9.95L70.67 10.35L70.92 8.27L73.30 8.27L73.30 18.75L70.72 18.75L70.72 16.13L71 16.75Q70.90 16.95 70.58 17.31Q70.25 17.68 69.71 18.07Q69.17 18.48 68.46 18.74Q67.75 19 66.83 19ZM67.53 16.90L67.53 16.90Q68.35 16.90 69 16.60Q69.65 16.30 70.10 15.75Q70.55 15.20 70.72 14.45L70.72 14.45L70.72 12.27Q70.53 11.57 70.05 11.06Q69.58 10.55 68.91 10.25Q68.25 9.95 67.45 9.95L67.45 9.95Q66.55 9.95 65.80 10.39Q65.05 10.82 64.60 11.60Q64.15 12.38 64.15 13.40L64.15 13.40Q64.15 14.38 64.61 15.18Q65.08 15.97 65.85 16.44Q66.63 16.90 67.53 16.90ZM79.80 18.98L79.80 18.98Q78.65 18.98 77.58 18.56Q76.50 18.15 75.80 17.35L75.80 17.35L76.90 15.90Q77.58 16.52 78.26 16.84Q78.95 17.15 79.58 17.15L79.58 17.15Q80.08 17.15 80.48 17.04Q80.88 16.93 81.13 16.65Q81.38 16.38 81.38 15.93L81.38 15.93Q81.38 15.40 81.03 15.10Q80.68 14.80 80.13 14.60Q79.58 14.40 78.95 14.22L78.95 14.22Q77.63 13.80 76.95 13.01Q76.28 12.22 76.28 11.15L76.28 11.15Q76.28 10.32 76.69 9.59Q77.10 8.85 77.95 8.38Q78.80 7.90 80.05 7.90L80.05 7.90Q81.20 7.90 82.08 8.16Q82.95 8.42 83.70 9.05L83.70 9.05L82.70 10.60Q82.25 10.15 81.64 9.91Q81.03 9.67 80.53 9.65L80.53 9.65Q80.08 9.65 79.70 9.79Q79.33 9.92 79.10 10.19Q78.88 10.45 78.88 10.80L78.88 10.80Q78.85 11.30 79.21 11.61Q79.58 11.93 80.15 12.11Q80.73 12.30 81.28 12.50L81.28 12.50Q82.05 12.72 82.65 13.11Q83.25 13.50 83.60 14.05Q83.95 14.60 83.95 15.45L83.95 15.45Q83.95 16.38 83.50 17.19Q83.05 18 82.13 18.49Q81.20 18.98 79.80 18.98ZM91.55 19L91.55 19Q89.73 19 88.43 18.29Q87.13 17.57 86.43 16.31Q85.73 15.05 85.73 13.43L85.73 13.43Q85.73 11.88 86.51 10.61Q87.30 9.35 88.64 8.60Q89.98 7.85 91.60 7.85L91.60 7.85Q93.70 7.85 95.09 9.07Q96.48 10.30 96.95 12.50L96.95 12.50L88.43 15.45L87.83 13.95L94.65 11.50L94.13 11.82Q93.83 11.05 93.18 10.46Q92.53 9.88 91.40 9.88L91.40 9.88Q90.50 9.88 89.79 10.31Q89.08 10.75 88.66 11.51Q88.25 12.27 88.25 13.30L88.25 13.30Q88.25 14.35 88.69 15.14Q89.13 15.93 89.89 16.38Q90.65 16.82 91.60 16.82L91.60 16.82Q92.28 16.82 92.89 16.57Q93.50 16.32 94.05 15.95L94.05 15.95L95.23 17.85Q94.40 18.38 93.44 18.69Q92.48 19 91.55 19ZM99.30 8.27L101.60 8.27L101.85 11.27L101.73 10.88Q102.15 9.92 102.92 9.25Q103.70 8.57 104.54 8.21Q105.38 7.85 105.95 7.85L105.95 7.85L105.83 10.40Q104.63 10.32 103.74 10.85Q102.85 11.38 102.35 12.25Q101.85 13.13 101.85 14.13L101.85 14.13L101.85 18.75L99.30 18.75L99.30 8.27ZM128.65 14.97L129.78 17.38Q129.38 17.65 128.59 18.04Q127.80 18.43 126.74 18.70Q125.68 18.98 124.40 18.95L124.40 18.95Q122.28 18.93 120.59 18.20Q118.90 17.48 117.73 16.21Q116.55 14.95 115.91 13.31Q115.28 11.68 115.28 9.82L115.28 9.82Q115.28 7.77 115.93 6.06Q116.58 4.35 117.79 3.07Q119.00 1.80 120.64 1.10Q122.28 0.40 124.23 0.40L124.23 0.40Q125.90 0.40 127.25 0.85Q128.60 1.30 129.53 1.90L129.53 1.90L128.48 4.40Q127.75 3.90 126.69 3.44Q125.63 2.97 124.33 2.97L124.33 2.97Q123.05 2.97 121.91 3.49Q120.78 4 119.91 4.91Q119.05 5.82 118.55 7.04Q118.05 8.25 118.05 9.67L118.05 9.67Q118.05 11.13 118.50 12.35Q118.95 13.57 119.79 14.47Q120.63 15.38 121.80 15.88Q122.98 16.38 124.45 16.38L124.45 16.38Q125.85 16.38 126.91 15.95Q127.98 15.53 128.65 14.97L128.65 14.97ZM132.70 18.75L132.70-0.68L135.28-0.68L135.28 18.75L132.70 18.75ZM143.63 19L143.63 19Q141.80 19 140.50 18.29Q139.20 17.57 138.50 16.31Q137.80 15.05 137.80 13.43L137.80 13.43Q137.80 11.88 138.59 10.61Q139.38 9.35 140.71 8.60Q142.05 7.85 143.68 7.85L143.68 7.85Q145.78 7.85 147.16 9.07Q148.55 10.30 149.03 12.50L149.03 12.50L140.50 15.45L139.90 13.95L146.73 11.50L146.20 11.82Q145.90 11.05 145.25 10.46Q144.60 9.88 143.48 9.88L143.48 9.88Q142.58 9.88 141.86 10.31Q141.15 10.75 140.74 11.51Q140.33 12.27 140.33 13.30L140.33 13.30Q140.33 14.35 140.76 15.14Q141.20 15.93 141.96 16.38Q142.73 16.82 143.68 16.82L143.68 16.82Q144.35 16.82 144.96 16.57Q145.58 16.32 146.13 15.95L146.13 15.95L147.30 17.85Q146.48 18.38 145.51 18.69Q144.55 19 143.63 19ZM155.75 19L155.75 19Q154.28 19 153.08 18.39Q151.88 17.77 151.18 16.55Q150.48 15.32 150.48 13.52L150.48 13.52Q150.48 11.75 151.21 10.47Q151.95 9.20 153.16 8.51Q154.38 7.82 155.80 7.82L155.80 7.82Q157.30 7.82 158.26 8.46Q159.23 9.10 159.78 9.95L159.78 9.95L159.60 10.35L159.85 8.27L162.23 8.27L162.23 18.75L159.65 18.75L159.65 16.13L159.93 16.75Q159.83 16.95 159.50 17.31Q159.18 17.68 158.64 18.07Q158.10 18.48 157.39 18.74Q156.68 19 155.75 19ZM156.45 16.90L156.45 16.90Q157.28 16.90 157.93 16.60Q158.58 16.30 159.03 15.75Q159.48 15.20 159.65 14.45L159.65 14.45L159.65 12.27Q159.45 11.57 158.98 11.06Q158.50 10.55 157.84 10.25Q157.18 9.95 156.38 9.95L156.38 9.95Q155.48 9.95 154.73 10.39Q153.98 10.82 153.53 11.60Q153.08 12.38 153.08 13.40L153.08 13.40Q153.08 14.38 153.54 15.18Q154.00 15.97 154.78 16.44Q155.55 16.90 156.45 16.90ZM165.68 8.27L167.98 8.27L168.20 10.67L168.10 10.35Q168.63 9.22 169.73 8.54Q170.83 7.85 172.33 7.85L172.33 7.85Q173.80 7.85 174.76 8.72Q175.73 9.60 175.75 11L175.75 11L175.75 18.75L173.18 18.75L173.18 11.90Q173.15 11.10 172.70 10.59Q172.25 10.07 171.30 10.05L171.30 10.05Q170.45 10.05 169.75 10.56Q169.05 11.07 168.65 11.95Q168.25 12.82 168.25 13.97L168.25 13.97L168.25 18.75L165.68 18.75L165.68 8.27ZM179.20 18.75L179.20 8.27L181.78 8.27L181.78 18.75L179.20 18.75ZM179.05 4.52L179.05 4.52Q179.05 3.92 179.53 3.52Q180.00 3.13 180.55 3.13L180.55 3.13Q181.13 3.13 181.58 3.52Q182.03 3.92 182.03 4.52L182.03 4.52Q182.03 5.13 181.58 5.51Q181.13 5.90 180.55 5.90L180.55 5.90Q180.00 5.90 179.53 5.51Q179.05 5.13 179.05 4.52ZM185.20 8.27L187.50 8.27L187.73 10.67L187.63 10.35Q188.15 9.22 189.25 8.54Q190.35 7.85 191.85 7.85L191.85 7.85Q193.33 7.85 194.29 8.72Q195.25 9.60 195.28 11L195.28 11L195.28 18.75L192.70 18.75L192.70 11.90Q192.68 11.10 192.23 10.59Q191.78 10.07 190.83 10.05L190.83 10.05Q189.98 10.05 189.28 10.56Q188.58 11.07 188.18 11.95Q187.78 12.82 187.78 13.97L187.78 13.97L187.78 18.75L185.20 18.75L185.20 8.27ZM203.85 23.95L203.85 23.95Q202.63 23.95 201.73 23.68Q200.83 23.40 200.11 22.91Q199.40 22.43 198.75 21.88L198.75 21.88L200.28 20.10Q201.05 20.82 201.88 21.26Q202.70 21.70 203.80 21.70L203.80 21.70Q204.90 21.70 205.69 21.34Q206.48 20.98 206.90 20.32Q207.33 19.68 207.33 18.77L207.33 18.77L207.35 16.05L207.53 16.55Q207.10 17.57 205.95 18.29Q204.80 19 203.13 19L203.13 19Q201.70 19 200.49 18.27Q199.28 17.55 198.55 16.30Q197.83 15.05 197.83 13.47L197.83 13.47Q197.83 11.82 198.59 10.56Q199.35 9.30 200.60 8.56Q201.85 7.82 203.28 7.82L203.28 7.82Q204.68 7.82 205.78 8.36Q206.88 8.90 207.43 9.70L207.43 9.70L207.28 10.13L207.55 8.27L209.93 8.27L209.93 18.80Q209.93 20.25 209.16 21.41Q208.40 22.57 207.05 23.26Q205.70 23.95 203.85 23.95ZM200.43 13.40L200.43 13.40Q200.43 14.38 200.88 15.18Q201.33 15.97 202.11 16.44Q202.90 16.90 203.88 16.90L203.88 16.90Q204.75 16.90 205.45 16.59Q206.15 16.27 206.64 15.74Q207.13 15.20 207.35 14.47L207.35 14.47L207.35 12.30Q207.13 11.57 206.63 11.06Q206.13 10.55 205.43 10.25Q204.73 9.95 203.88 9.95L203.88 9.95Q202.90 9.95 202.11 10.39Q201.33 10.82 200.88 11.60Q200.43 12.38 200.43 13.40ZM231.85 2.02L230.83 4.07Q229.88 3.57 228.78 3.22Q227.68 2.88 226.65 2.88L226.65 2.88Q225.25 2.88 224.43 3.51Q223.60 4.15 223.60 5.25L223.60 5.25Q223.60 6.02 224.15 6.60Q224.70 7.17 225.58 7.60Q226.45 8.02 227.43 8.40L227.43 8.40Q228.25 8.70 229.06 9.11Q229.88 9.53 230.54 10.13Q231.20 10.72 231.59 11.61Q231.98 12.50 231.98 13.77L231.98 13.77Q231.98 15.22 231.26 16.40Q230.55 17.57 229.21 18.26Q227.88 18.95 225.98 18.95L225.98 18.95Q224.83 18.95 223.74 18.69Q222.65 18.43 221.69 17.99Q220.73 17.55 219.95 17.02L219.95 17.02L221.15 14.95Q221.75 15.38 222.53 15.76Q223.30 16.15 224.14 16.38Q224.98 16.60 225.73 16.60L225.73 16.60Q226.55 16.60 227.35 16.31Q228.15 16.02 228.68 15.41Q229.20 14.80 229.20 13.80L229.20 13.80Q229.20 12.95 228.74 12.36Q228.28 11.77 227.51 11.35Q226.75 10.93 225.88 10.60L225.88 10.60Q225.03 10.28 224.15 9.88Q223.28 9.47 222.53 8.91Q221.78 8.35 221.31 7.51Q220.85 6.67 220.85 5.45L220.85 5.45Q220.85 4 221.54 2.91Q222.23 1.82 223.45 1.20Q224.68 0.57 226.28 0.50L226.28 0.50Q228.10 0.50 229.45 0.95Q230.80 1.40 231.85 2.02L231.85 2.02ZM233.95 13.40L233.95 13.40Q233.95 11.82 234.70 10.56Q235.45 9.30 236.78 8.57Q238.10 7.85 239.80 7.85L239.80 7.85Q241.53 7.85 242.83 8.57Q244.13 9.30 244.84 10.56Q245.55 11.82 245.55 13.40L245.55 13.40Q245.55 14.97 244.84 16.25Q244.13 17.52 242.83 18.26Q241.53 19 239.78 19L239.78 19Q238.10 19 236.79 18.32Q235.48 17.65 234.71 16.39Q233.95 15.13 233.95 13.40ZM236.55 13.43L236.55 13.43Q236.55 14.40 236.98 15.19Q237.40 15.97 238.13 16.44Q238.85 16.90 239.75 16.90L239.75 16.90Q240.68 16.90 241.40 16.44Q242.13 15.97 242.54 15.19Q242.95 14.40 242.95 13.43L242.95 13.43Q242.95 12.45 242.54 11.68Q242.13 10.90 241.40 10.42Q240.68 9.95 239.75 9.95L239.75 9.95Q238.83 9.95 238.10 10.42Q237.38 10.90 236.96 11.69Q236.55 12.47 236.55 13.43ZM248.10 18.75L248.10-0.68L250.68-0.68L250.68 18.75L248.10 18.75ZM257.45 19.18L257.45 19.18Q256.00 19.18 255.08 18.30Q254.15 17.43 254.10 16.05L254.10 16.05L254.10 8.27L256.68 8.27L256.68 15.13Q256.73 15.93 257.14 16.44Q257.55 16.95 258.48 16.98L258.48 16.98Q259.33 16.98 259.99 16.46Q260.65 15.95 261.04 15.06Q261.43 14.18 261.43 13.02L261.43 13.02L261.43 8.27L264.00 8.27L264.00 18.75L261.68 18.75L261.48 16.32L261.58 16.73Q261.25 17.43 260.65 17.99Q260.05 18.55 259.23 18.86Q258.40 19.18 257.45 19.18ZM268.45 8.30L268.45 3.67L271.03 3.67L271.03 8.30L273.83 8.30L273.83 10.32L271.03 10.32L271.03 18.75L268.45 18.75L268.45 10.32L266.60 10.32L266.60 8.30L268.45 8.30ZM276.10 18.75L276.10 8.27L278.68 8.27L278.68 18.75L276.10 18.75ZM275.95 4.52L275.95 4.52Q275.95 3.92 276.43 3.52Q276.90 3.13 277.45 3.13L277.45 3.13Q278.03 3.13 278.48 3.52Q278.93 3.92 278.93 4.52L278.93 4.52Q278.93 5.13 278.48 5.51Q278.03 5.90 277.45 5.90L277.45 5.90Q276.90 5.90 276.43 5.51Q275.95 5.13 275.95 4.52ZM281.20 13.40L281.20 13.40Q281.20 11.82 281.95 10.56Q282.70 9.30 284.03 8.57Q285.35 7.85 287.05 7.85L287.05 7.85Q288.78 7.85 290.08 8.57Q291.38 9.30 292.09 10.56Q292.80 11.82 292.80 13.40L292.80 13.40Q292.80 14.97 292.09 16.25Q291.38 17.52 290.08 18.26Q288.78 19 287.03 19L287.03 19Q285.35 19 284.04 18.32Q282.73 17.65 281.96 16.39Q281.20 15.13 281.20 13.40ZM283.80 13.43L283.80 13.43Q283.80 14.40 284.23 15.19Q284.65 15.97 285.38 16.44Q286.10 16.90 287.00 16.90L287.00 16.90Q287.93 16.90 288.65 16.44Q289.38 15.97 289.79 15.19Q290.20 14.40 290.20 13.43L290.20 13.43Q290.20 12.45 289.79 11.68Q289.38 10.90 288.65 10.42Q287.93 9.95 287.00 9.95L287.00 9.95Q286.08 9.95 285.35 10.42Q284.63 10.90 284.21 11.69Q283.80 12.47 283.80 13.43ZM295.35 8.27L297.65 8.27L297.88 10.67L297.78 10.35Q298.30 9.22 299.40 8.54Q300.50 7.85 302.00 7.85L302.00 7.85Q303.48 7.85 304.44 8.72Q305.40 9.60 305.43 11L305.43 11L305.43 18.75L302.85 18.75L302.85 11.90Q302.83 11.10 302.38 10.59Q301.93 10.07 300.98 10.05L300.98 10.05Q300.13 10.05 299.43 10.56Q298.73 11.07 298.33 11.95Q297.93 12.82 297.93 13.97L297.93 13.97L297.93 18.75L295.35 18.75L295.35 8.27ZM311.93 18.98L311.93 18.98Q310.78 18.98 309.70 18.56Q308.63 18.15 307.93 17.35L307.93 17.35L309.03 15.90Q309.70 16.52 310.39 16.84Q311.08 17.15 311.70 17.15L311.70 17.15Q312.20 17.15 312.60 17.04Q313.00 16.93 313.25 16.65Q313.50 16.38 313.50 15.93L313.50 15.93Q313.50 15.40 313.15 15.10Q312.80 14.80 312.25 14.60Q311.70 14.40 311.08 14.22L311.08 14.22Q309.75 13.80 309.08 13.01Q308.40 12.22 308.40 11.15L308.40 11.15Q308.40 10.32 308.81 9.59Q309.23 8.85 310.08 8.38Q310.93 7.90 312.18 7.90L312.18 7.90Q313.33 7.90 314.20 8.16Q315.08 8.42 315.83 9.05L315.83 9.05L314.83 10.60Q314.38 10.15 313.76 9.91Q313.15 9.67 312.65 9.65L312.65 9.65Q312.20 9.65 311.83 9.79Q311.45 9.92 311.23 10.19Q311.00 10.45 311.00 10.80L311.00 10.80Q310.98 11.30 311.34 11.61Q311.70 11.93 312.28 12.11Q312.85 12.30 313.40 12.50L313.40 12.50Q314.18 12.72 314.78 13.11Q315.38 13.50 315.73 14.05Q316.08 14.60 316.08 15.45L316.08 15.45Q316.08 16.38 315.63 17.19Q315.18 18 314.25 18.49Q313.33 18.98 311.93 18.98Z" transform="translate(0, 0)"></path></g></svg></svg>
                </g>
            </svg>
        